<svg width="200" height="200" viewBox="0 0 200 200" fill="none" xmlns="http://www.w3.org/2000/svg">
<g id="carbon:checkmark-outline">
<ellipse id="Ellipse 2" cx="100" cy="99.5" rx="76" ry="75.5" fill="#16BF82"/>
<path id="Vector" d="M100 12.5C82.6942 12.5 65.7769 17.6318 51.3876 27.2464C36.9983 36.861 25.7832 50.5267 19.1606 66.5152C12.5379 82.5037 10.8051 100.097 14.1813 117.07C17.5575 134.044 25.8911 149.635 38.1282 161.872C50.3653 174.109 65.9563 182.443 82.9296 185.819C99.903 189.195 117.496 187.462 133.485 180.839C149.473 174.217 163.139 163.002 172.754 148.612C182.368 134.223 187.5 117.306 187.5 100C187.5 76.7936 178.281 54.5376 161.872 38.1282C145.462 21.7187 123.206 12.5 100 12.5ZM100 175C85.1664 175 70.666 170.601 58.3323 162.36C45.9986 154.119 36.3856 142.406 30.7091 128.701C25.0325 114.997 23.5473 99.9168 26.4411 85.3682C29.335 70.8196 36.4781 57.4559 46.967 46.967C57.456 36.4781 70.8197 29.335 85.3683 26.4411C99.9168 23.5472 114.997 25.0325 128.701 30.709C142.406 36.3856 154.119 45.9985 162.36 58.3322C170.601 70.6659 175 85.1664 175 100C175 119.891 167.098 138.968 153.033 153.033C138.968 167.098 119.891 175 100 175Z" fill="black"/>
<path id="Vector_2" d="M87.5 133.837L56.25 102.581L65.0813 93.75L87.5 116.162L134.906 68.75L143.75 77.5937L87.5 133.837Z" fill="white"/>
</g>
</svg>
